# xmcd
#
# Track frame offsets:
#	150
#	16835
#	32602
#	43740
#	64770
#	80545
#	99312
#	118577
#	131487
#	143975
#	155372
#	166570
#
# Disc length: 2374 seconds
#
# Revision: 0
# Processed by: cddbd v1.4PL0 Copyright (c) Steve Scherf et al.
# Submitted via: audiograbber 1.80.04
#
DISCID=8e09440c
DTITLE=Maurice Larcange - 50 Ans D'Accordéon
DYEAR=1900
DGENRE=Pop
TTITLE0=Macarena
TTITLE1=Lambada
TTITLE2=Caminito
TTITLE3=La Queuleuleu
TTITLE4=Allez Viens Boir Un Coup À La Maison
TTITLE5=Un Amour Comme Le Nôtre
TTITLE6=I Just Called To Say I Love You
TTITLE7=Je Reviens Chez Nous
TTITLE8=Le Petit Bal Rétro
TTITLE9=Accordéon Musette Plus
TTITLE10=La Saga Du Musette
TTITLE11=TicoTico
EXTD=
EXTT0=
EXTT1=
EXTT2=
EXTT3=
EXTT4=
EXTT5=
EXTT6=
EXTT7=
EXTT8=
EXTT9=
EXTT10=
EXTT11=
PLAYORDER=
